<svg width="36" height="36" fill="none" xmlns="http://www.w3.org/2000/svg"><g clip-path="url(#clip0_340_1525)" fill="#fff"><path d="M13.931 19.6c-3.475.67-5.197 4.54-5.944 6.951A1.5 1.5 0 009.42 28.5h5.578a4.5 4.5 0 004.482-4.911 4.66 4.66 0 00-5.55-3.989z"/><path d="M34.5 13.469a1.5 1.5 0 00-1.5 1.5V22.5h-6a4.5 4.5 0 00-4.5 4.5v6h-15A4.5 4.5 0 013 28.5v-21A4.5 4.5 0 017.5 3h16.563a1.5 1.5 0 000-3H7.5A7.509 7.509 0 000 7.5v21A7.509 7.509 0 007.5 36h17.015a7.45 7.45 0 005.302-2.196l3.987-3.987A7.45 7.45 0 0036 24.515v-9.546a1.5 1.5 0 00-1.5-1.5zm-6.804 18.214a4.533 4.533 0 01-2.196 1.2V27a1.5 1.5 0 011.5-1.5h5.888a4.533 4.533 0 01-1.2 2.196l-3.992 3.987z"/><path d="M21.848 21.256a1.499 1.499 0 01-1.06-2.561l11.78-11.78a1.414 1.414 0 000-2.002 1.35 1.35 0 00-1.042-.412 1.4 1.4 0 00-1.017.47l-11.4 12.611a1.5 1.5 0 11-2.226-2.012l11.4-12.6a4.424 4.424 0 013.16-1.47 4.477 4.477 0 013.245 1.294 4.42 4.42 0 010 6.244l-11.78 11.78a1.49 1.49 0 01-1.06.438z"/></g><defs><clipPath id="clip0_340_1525"><path fill="#fff" d="M0 0h36v36H0z"/></clipPath></defs></svg>