<svg width="36" height="36" fill="none" xmlns="http://www.w3.org/2000/svg"><path d="M21.75 10.5A5.256 5.256 0 0027 5.25 5.256 5.256 0 0021.75 0a5.256 5.256 0 00-5.25 5.25 5.256 5.256 0 005.25 5.25zm0-7.5C22.99 3 24 4.01 24 5.25S22.99 7.5 21.75 7.5 19.5 6.49 19.5 5.25 20.51 3 21.75 3zm-13.5 7.5a5.256 5.256 0 005.25-5.25A5.256 5.256 0 008.25 0 5.256 5.256 0 003 5.25a5.256 5.256 0 005.25 5.25zm0-7.5c1.24 0 2.25 1.01 2.25 2.25S9.49 7.5 8.25 7.5 6 6.49 6 5.25 7.01 3 8.25 3zm-.585 12.031a5.276 5.276 0 00-4.632 4.634A1.5 1.5 0 011.543 21C.468 21-.04 20.157.05 19.335c.422-3.801 3.485-6.864 7.286-7.284a1.515 1.515 0 011.656 1.328 1.5 1.5 0 01-1.326 1.655v-.003zm5.859 5.978a1.496 1.496 0 01-1.094.471c-.369 0-.738-.135-1.027-.407a5.271 5.271 0 01-1.655-3.825 5.256 5.256 0 015.25-5.25c1.148 0 2.238.364 3.152 1.052a1.5 1.5 0 11-1.803 2.395 2.253 2.253 0 00-3.598 1.802c0 .627.251 1.209.709 1.64a1.5 1.5 0 01.064 2.12l.002.002zm-1.772 4.773a1.5 1.5 0 01-.427 2.079 5.23 5.23 0 00-2.334 3.804A1.502 1.502 0 017.5 33c-1.06 0-1.584-.843-1.494-1.665a8.225 8.225 0 013.666-5.977 1.502 1.502 0 012.078.425l.001-.001zM25.5 15C19.71 15 15 19.712 15 25.5S19.71 36 25.5 36 36 31.288 36 25.5 31.29 15 25.5 15zm0 18c-4.136 0-7.5-3.364-7.5-7.5s3.364-7.5 7.5-7.5c4.135 0 7.5 3.364 7.5 7.5S29.635 33 25.5 33zm4.831-9.318a1.499 1.499 0 01-.043 2.121l-3.318 3.186a3.522 3.522 0 01-2.48 1.006 3.567 3.567 0 01-2.496-1.01l-1.698-1.662a1.5 1.5 0 012.099-2.146l1.698 1.663a.561.561 0 00.783 0l3.334-3.201a1.499 1.499 0 012.121.043z" fill="#fff"/></svg>