<svg width="36" height="37" fill="none" xmlns="http://www.w3.org/2000/svg"><g clip-path="url(#clip0_36_1028)" fill="#fff"><path d="M27.872 4.122L18.474.988a1.5 1.5 0 00-.948 0L8.129 4.122A7.49 7.49 0 003 11.236v7.676c0 11.345 13.8 17.61 14.391 17.871a1.5 1.5 0 001.218 0C19.2 36.522 33 30.256 33 18.912v-7.675a7.49 7.49 0 00-5.128-7.115zM30 18.912c0 8.183-9.479 13.55-12 14.834-2.524-1.28-12-6.63-12-14.834v-7.675a4.5 4.5 0 013.078-4.27L18 3.993l8.922 2.974A4.5 4.5 0 0130 11.237v7.675z"/><path d="M22.95 13.361l-6.282 6.3-3.366-3.51a1.5 1.5 0 10-2.161 2.08l3.459 3.6a2.806 2.806 0 002.017.9h.05a2.807 2.807 0 002.002-.83l6.408-6.408a1.506 1.506 0 00-2.127-2.132z"/></g><defs><clipPath id="clip0_36_1028"><path fill="#fff" transform="translate(0 .912)" d="M0 0h36v36H0z"/></clipPath></defs></svg>