<svg width="36" height="36" fill="none" xmlns="http://www.w3.org/2000/svg"><path d="M36 30c0 2.481-2.019 4.5-4.5 4.5a1.5 1.5 0 01-3 0h-.402a4.514 4.514 0 01-3.897-2.248 1.5 1.5 0 012.597-1.502c.267.462.766.75 1.3.75H31.5c.827 0 1.5-.672 1.5-1.5 0-.567-.406-1.047-.966-1.14l-4.563-.76A4.143 4.143 0 0124 24c0-2.481 2.019-4.5 4.5-4.5a1.5 1.5 0 013 0h.402c1.602 0 3.094.861 3.897 2.248A1.5 1.5 0 0133.2 23.25a1.508 1.508 0 00-1.3-.75h-3.402c-.827 0-1.5.672-1.5 1.5 0 .567.406 1.047.966 1.14l4.563.76A4.143 4.143 0 0136 30zM21 3.807c0-1.447.807-2.772 2.166-3.441.857-.421 1.842-.435 2.768-.196 4.91 1.263 8.803 5.227 9.966 10.174a3.562 3.562 0 01-.67 3.045c-.823 1.04-2.168 1.613-3.787 1.613H25.5a4.5 4.5 0 01-4.5-4.5V3.806zm3 6.693a1.5 1.5 0 001.5 1.5h5.943c.665 0 1.202-.177 1.437-.474a.552.552 0 00.1-.498c-.926-3.94-4.07-7.084-8.01-8.007a.778.778 0 00-.66.151.807.807 0 00-.31.635V10.5zM21 18h-3V7.877a4.525 4.525 0 00-1.749-3.584 4.32 4.32 0 00-3.721-.811C5.06 5.328-.207 12.26.006 19.968c.239 8.598 7.428 15.787 16.028 16.026a16.65 16.65 0 003.767-.324 1.5 1.5 0 00-.598-2.94 13.97 13.97 0 01-3.085.266C9.083 32.8 3.2 26.919 3.006 19.883 2.832 13.578 7.14 7.905 13.25 6.394c.537-.131.955.107 1.153.262.375.292.597.75.597 1.22V19.5a1.5 1.5 0 001.5 1.5H21a1.5 1.5 0 000-3z" fill="#fff"/></svg>