<svg width="32" height="37" fill="none" xmlns="http://www.w3.org/2000/svg"><path d="M31.314 2.232A2.964 2.964 0 0028.781.823h-4.514a5.96 5.96 0 00-5.38 3.345l-2.791 5.66c-.032 0-.064-.005-.095-.005-.021 0-.04.003-.062.003l-2.791-5.658A5.962 5.962 0 007.768.823H3.253A2.969 2.969 0 00.719 2.232a2.97 2.97 0 00-.141 2.896l4.848 9.83a13.424 13.424 0 00-2.925 8.367c0 7.443 6.057 13.5 13.5 13.5s13.5-6.057 13.5-13.5c0-3.149-1.092-6.04-2.905-8.34l4.861-9.855a2.967 2.967 0 00-.141-2.897l-.002-.001zM7.767 3.823c1.15 0 2.181.64 2.69 1.673l2.332 4.73a13.441 13.441 0 00-5.124 2.498l-4.412-8.9h4.514zm8.233 30c-5.79 0-10.5-4.71-10.5-10.5 0-5.49 4.238-10.002 9.614-10.455h.006c.291-.024.585-.045.882-.045 5.79 0 10.5 4.71 10.5 10.5s-4.71 10.5-10.5 10.5H16zm8.356-21.082a13.442 13.442 0 00-5.116-2.508l2.337-4.737a2.979 2.979 0 012.69-1.673l4.5-.022-4.411 8.94zm-2.12 9.697c0 .542-.377.998-.808 1.238l-2.235 1.242.991 2.704a1.267 1.267 0 01-.427 1.448 1.263 1.263 0 01-1.535-.01l-2.223-1.72-2.223 1.72a1.267 1.267 0 01-1.962-1.438l.992-2.704-2.236-1.242c-.432-.24-.808-.696-.808-1.238 0-.459.399-.966 1.044-.966h3.21l.85-3.262a1.188 1.188 0 011.133-.887c.533.01.998.37 1.133.887l.85 3.262h3.21c.645 0 1.044.506 1.044.966z" fill="#fff"/></svg>