<svg width="36" height="36" fill="none" xmlns="http://www.w3.org/2000/svg"><path d="M10.5 21c3.315 0 6-2.685 6-6s-2.685-6-6-6-6 2.685-6 6 2.685 6 6 6zm0-9c1.65 0 3 1.35 3 3s-1.35 3-3 3-3-1.35-3-3 1.35-3 3-3zM21 34.5c0 .825-.675 1.5-1.5 1.5s-1.5-.675-1.5-1.5c0-4.14-3.36-7.5-7.5-7.5C6.36 27 3 30.36 3 34.5c0 .825-.675 1.5-1.5 1.5S0 35.325 0 34.5C0 28.71 4.71 24 10.5 24S21 28.71 21 34.5zm15-27v12c0 4.14-3.36 7.5-7.5 7.5h-6c-.825 0-1.5-.675-1.5-1.5s.675-1.5 1.5-1.5h6c2.475 0 4.5-2.025 4.5-4.5v-12C33 5.025 30.975 3 28.5 3H14.19c-1.605 0-3.09.87-3.9 2.25-.42.72-1.335.96-2.055.555a1.498 1.498 0 01-.54-2.055C9.045 1.44 11.535 0 14.19 0H28.5C32.64 0 36 3.36 36 7.5zm-15.495 8.88l4.38-4.38H22.5c-.825 0-1.5-.675-1.5-1.5S21.675 9 22.5 9H27c1.65 0 3 1.35 3 3v4.5c0 .825-.675 1.5-1.5 1.5s-1.5-.675-1.5-1.5v-2.385l-4.38 4.38a3.636 3.636 0 01-3.555.93 1.496 1.496 0 01-1.035-1.845 1.505 1.505 0 011.86-1.035c.18.045.42.03.615-.165z" fill="#fff"/></svg>