<svg width="24" height="20" fill="none" xmlns="http://www.w3.org/2000/svg"><path d="M18 3.92A3.924 3.924 0 0014.08 0H3.92A3.92 3.92 0 00.944 6.471L6 12.37V16a1 1 0 00.4.8l4 3a1.004 1.004 0 001.047.095A1 1 0 0012 19v-6.63l5.056-5.899A3.92 3.92 0 0018 3.92zm-2.462 1.25l-5.297 6.18a1.002 1.002 0 00-.241.651v5l-2-1.5v-3.5a.996.996 0 00-.241-.651L2.462 5.169a1.922 1.922 0 011.458-3.17h10.16a1.922 1.922 0 011.458 3.171zM24 18.001a1 1 0 01-1 1h-8a1 1 0 010-2h8a1 1 0 011 1zm0-4a1 1 0 01-1 1h-8a1 1 0 010-2h8a1 1 0 011 1zm-6-5h5a1 1 0 010 2h-5a1 1 0 010-2z" fill="#fff"/></svg>