<svg width="20" height="24" fill="none" xmlns="http://www.w3.org/2000/svg"><path d="M17.95 5.536l-3.485-3.485a6.954 6.954 0 00-4.95-2.05H5A5.004 5.004 0 000 5v14c0 2.757 2.243 5 5 5h10c2.757 0 5-2.243 5-5v-8.515c0-1.87-.728-3.626-2.05-4.949zM16.536 6.95c.318.318.587.671.805 1.05H13c-.551 0-1-.449-1-1V2.659c.379.218.733.487 1.05.805l3.485 3.485.001.001zM18 19c0 1.654-1.346 3-3 3H5c-1.654 0-3-1.346-3-3V5c0-1.654 1.346-3 3-3h4.515c.163 0 .325.008.485.023V7c0 1.654 1.346 3 3 3h4.977a5.2 5.2 0 01.023.485V19zm-4.293-4.519a.999.999 0 11-1.414 1.414L11 14.602V19a1 1 0 01-2 0v-4.398l-1.293 1.293a.999.999 0 11-1.414-1.414l1.614-1.614a2.965 2.965 0 014.187 0l1.614 1.614h-.001z" fill="#AFC82E"/></svg>