<svg width="394" height="72" fill="none" xmlns="http://www.w3.org/2000/svg"><path d="M22.735 71.317L2.027 50.611V21.327L22.735.62h29.284l20.706 20.706V50.61L52.019 71.317H22.735z" fill="#fff" stroke="#1D1D1B" stroke-width="1.241" stroke-miterlimit="10"/><path d="M51.225 2.52H23.517L3.916 22.109v27.708l19.601 19.589h27.708l19.601-19.59V22.11L51.225 2.52zm13.519 44.814L48.717 63.36H26.05L10.024 47.334V24.666L26.05 8.64h22.667l16.027 16.026v22.668z" fill="#1D1D1B" stroke="#fff" stroke-width="1.241" stroke-miterlimit="10"/><path d="M51.225 2.52H23.517L3.916 22.109v27.708l19.601 19.589h27.708l19.601-19.59V22.11L51.225 2.52zm13.519 44.814L48.717 63.36H26.05L10.024 47.334V24.666L26.05 8.64h22.667l16.027 16.026v22.668z" fill="#1D1D1B" stroke="#fff" stroke-width="1.241" stroke-miterlimit="10"/><path d="M16.801 50.561l6.195 6.319h22.978l12.252-12.414.012-11.73-35.503.024v-2.532l35.54-.038v-6.393H28.67l2.669-2.669h26.59l-6.07-6.058H28.793L16.342 27.211v11.793h35.602v2.793h-35.49v6.244h29.445l-2.483 2.52H16.801z" fill="#1D1D1B" stroke="#fff" stroke-width="1.241" stroke-miterlimit="10"/><g clip-path="url(#clip0_36_1394)"><path d="M77.981 49.445H374.07v-27H77.981v27z" fill="#1D1D1B"/><path d="M95.46 35.186h10.261v2.048H95.459V40.7h10.756v2.047H91.228V29.846h14.987v2.047H95.459v3.293zm18.205-5.34v8.732c0 1.752.555 2.22 4.959 2.22 4.403 0 4.896-.468 4.896-2.22v-8.732h4.219v8.61c0 3.255-1.345 4.44-9.239 4.44-7.894 0-9.065-1.185-9.065-4.466v-8.597h4.218l.012.013zm22.115 12.901h-4.218V29.846h10.73c4.786 0 7.13 1.073 7.13 3.996 0 1.665-.555 3.256-3.96 3.515v.074c2.578.087 3.664.975 3.664 2.48v2.836h-4.219v-2.64c0-1.307-1.319-1.689-3.281-1.689h-5.834v4.317l-.012.012zm0-6.426h5.834c2.578 0 3.515-.69 3.515-2.158 0-1.567-.703-2.22-3.342-2.22h-6.007v4.378zm26.26-6.611c7.388 0 9.411 1.381 9.411 6.315 0 5.736-2.048 6.87-9.411 6.87-7.919 0-9.387-1.159-9.387-6.87 0-4.946 1.937-6.315 9.387-6.315zm0 11.089c4.403 0 5.131-.518 5.131-4.49 0-3.972-.876-4.49-5.131-4.49-4.256 0-5.107.333-5.107 4.49s.703 4.49 5.107 4.49zm17.157-5.613h10.263v2.048h-10.263V40.7h10.756v2.047h-14.986V29.846h14.986v2.047h-10.756v3.293zm18.033-5.34l5.107 5.118 5.069-5.118h4.811l-6.513 6.229 7.006 6.66h-4.872l-5.513-5.427-5.576 5.427h-4.958l7.216-6.66-6.686-6.23h4.909zm22.066 12.901h-4.218V29.846h9.35c5.365 0 8.214.703 8.214 4.243 0 3.54-2.047 4.428-7.832 4.428h-5.514v4.23zm0-6.34h5.107c2.874 0 3.959-.394 3.959-2.096 0-1.863-1.085-2.356-3.959-2.356h-5.107v4.465-.012zm25.952-6.697c7.388 0 9.411 1.381 9.411 6.315 0 5.736-2.048 6.87-9.411 6.87-7.919 0-9.387-1.159-9.387-6.87 0-4.946 1.937-6.315 9.387-6.315zm0 11.089c4.403 0 5.131-.518 5.131-4.49 0-3.972-.876-4.49-5.131-4.49-4.256 0-5.107.333-5.107 4.49s.703 4.49 5.107 4.49zm16.343-2.184c0 2.036.703 2.233 4.749 2.233 4.046 0 4.872-.567 4.872-1.863 0-1.295-1.196-1.578-5.39-1.751-5.069-.21-8.215-.839-8.215-3.873 0-2.208 1.962-3.651 8.647-3.651 5.02 0 8.498.53 8.498 3.392v.506h-4.045c0-1.616-.938-1.95-4.367-1.95-3.786 0-4.514.704-4.514 1.728 0 1.295.234 1.64 5.279 1.8 5.279.185 8.153.827 8.153 3.577 0 2.899-1.53 4.132-8.918 4.132-5.39 0-8.733-.468-8.733-3.774v-.518h3.984v.012zm26.014 4.132h-4.219V31.955h-6.45v-2.097h17.12v2.097h-6.451v10.792zm11.73-2.467l-1.382 2.467h-4.366l7.302-12.901h6.192l7.45 12.901h-4.28l-1.406-2.466h-9.51zm4.724-8.535l-3.75 6.698h7.561l-3.811-6.698zm19.969-1.899l9.263 10.792h.025V29.846h4.218v12.901h-7.092l-9.263-10.78h-.025v10.78h-4.218V29.846h7.092zm17.342 0h10.496c6.624 0 8.585 1.727 8.585 6.043 0 5.144-1.961 6.858-8.918 6.858h-10.176V29.846h.013zm4.218 10.805h5.156c4.218 0 5.427-.691 5.427-4.342s-1.024-4.354-4.638-4.354h-5.957v8.696h.012z" fill="#fff"/></g><defs><clipPath id="clip0_36_1394"><path fill="#fff" transform="translate(77.981 22.445)" d="M0 0h296.087v27H0z"/></clipPath></defs></svg>