<svg width="394" height="72" fill="none" xmlns="http://www.w3.org/2000/svg"><g clip-path="url(#clip0_36_953)"><path d="M80.435 49.705h313.187V22.53H80.435v27.174z" fill="#1D1D1B"/><path d="M95.679 34.305h10.328v2.098H95.679v3.55h10.825v2.098H91.421V28.843h15.083v2.098H95.679v3.364zm14.077-5.462h11.334c3.96 0 6.169.993 6.169 3.314 0 1.54-.918 2.67-3.153 3.03v.086c2.359.224 3.662 1.291 3.662 2.98 0 2.32-2.036 3.786-6.318 3.786h-11.682V28.83l-.012.013zm4.245 5.561h5.313c2.682 0 3.687-.285 3.687-1.874 0-1.254-.918-1.59-2.979-1.59h-6.021v3.464zm0 5.55h5.313c2.806 0 4.196-.423 4.196-1.888 0-1.465-.98-1.775-3.426-1.775h-6.083v3.675-.013zm21.551 2.097h-4.245V28.843h9.409c5.4 0 8.268.72 8.268 4.345 0 3.624-2.073 4.53-7.883 4.53h-5.549v4.333zm0-6.492h5.14c2.892 0 3.984-.41 3.984-2.148 0-1.9-1.092-2.42-3.984-2.42h-5.14v4.568zm26.119-6.853c7.435 0 9.471 1.415 9.471 6.468 0 5.871-2.06 7.038-9.471 7.038-7.97 0-9.447-1.179-9.447-7.038 0-5.065 1.949-6.468 9.447-6.468zm0 11.359c4.431 0 5.164-.534 5.164-4.606 0-4.071-.882-4.605-5.164-4.605-4.283 0-5.14.335-5.14 4.605 0 4.27.708 4.606 5.14 4.606zm12.401-6.79c.472-3.092 1.974-4.569 9.174-4.569 7.2 0 9.124 1.639 9.124 6.455 0 5.798-1.564 7.051-9.124 7.051-6.902 0-9.261-1.266-9.261-3.81v-.634h4.159v.385c0 1.477 1.266 2.06 5.015 2.06 3.985 0 4.953-.893 4.953-3.934h-8.528v-1.887h8.528c0-2.992-.856-3.7-4.953-3.7-4.096 0-4.717.596-5.052 2.57h-4.047l.012.013zm26.093 1.03h1.862l7.498-5.462h5.189l-8.938 6.442 9.882 6.779h-5.375l-8.144-5.649h-1.974v5.648h-4.245V28.855h4.245v5.462-.012zm34.61 3.016v.77c0 3.029-2.395 4.109-9.149 4.109-7.262 0-9.322-1.39-9.322-7.001 0-4.556 1.887-6.505 9.174-6.505 7.286 0 8.826 1.54 9.173 4.568h-4.133c-.212-2.048-1.18-2.42-5.04-2.42-3.861 0-4.867.682-4.867 4.655 0 3.972 1.006 4.543 4.953 4.543 3.948 0 5.04-.422 5.04-1.9v-.831h4.159l.012.012zm22.047-8.478V42.05h-4.246V30.99h-10.303v11.06h-4.246V28.843h18.795zm12.985-.137c7.436 0 9.472 1.415 9.472 6.468 0 5.871-2.061 7.038-9.472 7.038-7.969 0-9.447-1.179-9.447-7.038 0-5.065 1.949-6.468 9.447-6.468zm0 11.359c4.432 0 5.164-.534 5.164-4.606 0-4.071-.881-4.605-5.164-4.605-4.283 0-5.139.335-5.139 4.605 0 4.27.708 4.606 5.139 4.606zm31.196-2.744v.77c0 3.029-2.383 4.109-9.149 4.109-7.262 0-9.323-1.39-9.323-7.001 0-4.556 1.887-6.505 9.174-6.505 7.287 0 8.826 1.54 9.174 4.568h-4.134c-.211-2.048-1.179-2.42-5.052-2.42-3.873 0-4.867.682-4.867 4.655 0 3.972 1.006 4.543 4.954 4.543 3.947 0 5.052-.422 5.052-1.9v-.831h4.159l.012.012zm12.439 4.73h-4.245v-11.06h-6.493v-2.148h17.23v2.147h-6.492v11.061zm13.009-7.746h10.329v2.098h-10.329v3.55h10.825v2.098h-15.083V28.843h15.083v2.098h-10.825v3.364zm18.323 0h10.303v-5.462h4.246V42.05h-4.246v-5.648h-10.303v5.648h-4.246V28.843h4.246v5.462zm18.745 5.574c1.738-1.093 2.296-2.533 2.296-5.487v-5.55h15.989v11.061h1.974v5.202h-3.96V42.05h-14.015v3.054h-3.96v-5.202h1.651v-.024h.025zm6.467-8.889v3.39c0 2.68-.447 4.431-1.974 5.523h9.559v-8.9h-7.585v-.013z" fill="#fff"/><path d="M22.735 71.317L2.027 50.611V21.327L22.735.62h29.284l20.706 20.706V50.61L52.019 71.317H22.735z" fill="#fff" stroke="#1D1D1B" stroke-width="1.241" stroke-miterlimit="10"/><path d="M51.225 2.52H23.517L3.916 22.109v27.708l19.601 19.589h27.708l19.601-19.59V22.11L51.225 2.52zm13.519 44.814L48.717 63.36H26.05L10.024 47.334V24.666L26.05 8.64h22.667l16.027 16.026v22.668z" fill="#1D1D1B" stroke="#fff" stroke-width="1.241" stroke-miterlimit="10"/><path d="M51.225 2.52H23.517L3.916 22.109v27.708l19.601 19.589h27.708l19.601-19.59V22.11L51.225 2.52zm13.519 44.814L48.717 63.36H26.05L10.024 47.334V24.666L26.05 8.64h22.667l16.027 16.026v22.668z" fill="#1D1D1B" stroke="#fff" stroke-width="1.241" stroke-miterlimit="10"/><path d="M16.801 50.561l6.195 6.319h22.978l12.252-12.414.012-11.73-35.503.024v-2.532l35.54-.038v-6.393H28.67l2.669-2.669h26.59l-6.07-6.058H28.793L16.342 27.211v11.793h35.602v2.793h-35.49v6.244h29.445l-2.483 2.52H16.801z" fill="#1D1D1B" stroke="#fff" stroke-width="1.241" stroke-miterlimit="10"/></g><defs><clipPath id="clip0_36_953"><path fill="#fff" transform="translate(.241)" d="M0 0h393.517v72H0z"/></clipPath></defs></svg>