<svg width="40" height="40" fill="none" xmlns="http://www.w3.org/2000/svg"><g clip-path="url(#clip0_604_22116)"><path d="M20 20a6.667 6.667 0 100-13.334A6.667 6.667 0 0020 20zm0-10a3.333 3.333 0 110 6.666A3.333 3.333 0 0120 10zm14.433 5.262l-1.198-.399A13.335 13.335 0 0020 0 13.321 13.321 0 006.81 15.153a8.408 8.408 0 00-4.247 2.167A8.244 8.244 0 000 23.333v6.792a8.355 8.355 0 006 8l4.783 1.5a8.29 8.29 0 002.482.375 8.462 8.462 0 002.258-.31l9.634-2.85a4.979 4.979 0 012.621 0l3.979 1.333A6.666 6.666 0 0040 31.702V23.12a8.358 8.358 0 00-5.567-7.858zM12.93 6.27a9.979 9.979 0 0114.14 0 10.062 10.062 0 01.018 14.167l-5.921 5.758a1.654 1.654 0 01-2.315 0l-5.922-5.733a10.067 10.067 0 010-14.192zm23.737 25.432a3.32 3.32 0 01-1.274 2.62 3.282 3.282 0 01-2.71.658l-3.908-1.313a8.371 8.371 0 00-4.528-.027l-9.64 2.847a5 5 0 01-2.824-.049l-4.823-1.5a5.021 5.021 0 01-3.627-4.813v-6.792a4.94 4.94 0 011.534-3.605 5.04 5.04 0 012.781-1.343 13.368 13.368 0 002.942 4.448l5.945 5.755a4.971 4.971 0 006.957 0l5.938-5.771a13.271 13.271 0 003.022-4.702l.895.297a5.01 5.01 0 013.32 4.708v8.582z" fill="#C82E4A"/></g><defs><clipPath id="clip0_604_22116"><path fill="#fff" d="M0 0h40v40H0z"/></clipPath></defs></svg>