<svg width="48" height="48" fill="none" xmlns="http://www.w3.org/2000/svg"><path fill-rule="evenodd" clip-rule="evenodd" d="M24 0C10.745 0 0 10.745 0 24s10.745 24 24 24 24-10.745 24-24S37.255 0 24 0zm1.954 31.576c-.236.25-.698.3-.698.3h-1.53s-3.376.199-6.35-2.84c-3.243-3.314-6.106-9.89-6.106-9.89s-.165-.432.014-.64c.201-.235.75-.25.75-.25l3.658-.023s.345.055.591.234c.204.147.318.421.318.421s.591 1.468 1.374 2.795c1.528 2.592 2.24 3.159 2.758 2.881.756-.404.53-3.664.53-3.664s.013-1.182-.38-1.71c-.306-.407-.882-.527-1.137-.56-.206-.027.132-.496.57-.706.659-.316 1.82-.335 3.194-.321 1.07.01 1.379.076 1.797.175.97.23.94.967.875 2.557-.02.476-.042 1.028-.042 1.665 0 .143-.005.296-.009.453-.023.815-.049 1.748.498 2.095.28.177.966.026 2.68-2.83.812-1.355 1.42-2.947 1.42-2.947s.135-.283.341-.405c.212-.124.497-.086.497-.086l3.85-.024s1.156-.136 1.343.378c.197.537-.432 1.793-2.005 3.85-1.492 1.953-2.217 2.671-2.15 3.307.048.465.52.885 1.425 1.71 1.89 1.722 2.398 2.628 2.52 2.846l.022.04c.848 1.38-.94 1.489-.94 1.489l-3.42.046s-.733.143-1.7-.508c-.506-.341-1.001-.898-1.473-1.429-.72-.81-1.384-1.558-1.952-1.381-.952.297-.924 2.312-.924 2.312s.008.431-.209.66z" fill="#fff"/></svg>